<mxfile host="Electron" agent="Mozilla/5.0 (X11; Linux x86_64) AppleWebKit/537.36 (KHTML, like Gecko) draw.io/27.0.9 Chrome/134.0.6998.205 Electron/35.5.1 Safari/537.36" version="27.0.9">
  <diagram name="Page-1" id="_Iu9NHKlGLeXYteFuYKw">
    <mxGraphModel dx="763" dy="583" grid="1" gridSize="10" guides="1" tooltips="1" connect="0" arrows="0" fold="1" page="1" pageScale="1" pageWidth="850" pageHeight="1100" background="none" math="0" shadow="0">
      <root>
        <mxCell id="0" />
        <mxCell id="1" parent="0" />
        <mxCell id="NJD8K3vONdqFfYmHJguv-18" value="" style="rounded=1;whiteSpace=wrap;html=1;" vertex="1" parent="1">
          <mxGeometry x="330" y="140" width="190" height="135" as="geometry" />
        </mxCell>
        <mxCell id="NJD8K3vONdqFfYmHJguv-13" value="" style="rounded=1;whiteSpace=wrap;html=1;" vertex="1" parent="1">
          <mxGeometry x="110" y="400" width="650" height="190" as="geometry" />
        </mxCell>
        <mxCell id="NJD8K3vONdqFfYmHJguv-1" value="NAS&lt;div&gt;(has notes)&lt;/div&gt;" style="rounded=1;whiteSpace=wrap;html=1;" vertex="1" parent="1">
          <mxGeometry x="365" y="190" width="120" height="60" as="geometry" />
        </mxCell>
        <mxCell id="NJD8K3vONdqFfYmHJguv-5" style="edgeStyle=orthogonalEdgeStyle;rounded=1;orthogonalLoop=1;jettySize=auto;html=1;exitX=1;exitY=0.5;exitDx=0;exitDy=0;entryX=0;entryY=0.5;entryDx=0;entryDy=0;endArrow=none;startFill=0;" edge="1" parent="1" source="NJD8K3vONdqFfYmHJguv-2" target="NJD8K3vONdqFfYmHJguv-4">
          <mxGeometry relative="1" as="geometry" />
        </mxCell>
        <mxCell id="NJD8K3vONdqFfYmHJguv-6" style="edgeStyle=orthogonalEdgeStyle;rounded=1;orthogonalLoop=1;jettySize=auto;html=1;exitX=0.5;exitY=1;exitDx=0;exitDy=0;entryX=0;entryY=0.5;entryDx=0;entryDy=0;endArrow=none;startFill=0;" edge="1" parent="1" source="NJD8K3vONdqFfYmHJguv-2" target="NJD8K3vONdqFfYmHJguv-3">
          <mxGeometry relative="1" as="geometry" />
        </mxCell>
        <mxCell id="NJD8K3vONdqFfYmHJguv-9" style="edgeStyle=orthogonalEdgeStyle;rounded=1;orthogonalLoop=1;jettySize=auto;html=1;exitX=0.5;exitY=0;exitDx=0;exitDy=0;entryX=0;entryY=0.5;entryDx=0;entryDy=0;endArrow=none;startFill=0;dashed=1;dashPattern=8 8;" edge="1" parent="1" source="NJD8K3vONdqFfYmHJguv-2" target="NJD8K3vONdqFfYmHJguv-1">
          <mxGeometry relative="1" as="geometry" />
        </mxCell>
        <mxCell id="NJD8K3vONdqFfYmHJguv-2" value="PC&lt;div&gt;(has notes)&lt;/div&gt;" style="rounded=1;whiteSpace=wrap;html=1;" vertex="1" parent="1">
          <mxGeometry x="130" y="440" width="120" height="60" as="geometry" />
        </mxCell>
        <mxCell id="NJD8K3vONdqFfYmHJguv-7" style="edgeStyle=orthogonalEdgeStyle;rounded=1;orthogonalLoop=1;jettySize=auto;html=1;exitX=1;exitY=0.5;exitDx=0;exitDy=0;entryX=0.5;entryY=1;entryDx=0;entryDy=0;endArrow=none;startFill=0;" edge="1" parent="1" source="NJD8K3vONdqFfYmHJguv-3" target="NJD8K3vONdqFfYmHJguv-4">
          <mxGeometry relative="1" as="geometry" />
        </mxCell>
        <mxCell id="NJD8K3vONdqFfYmHJguv-8" style="edgeStyle=orthogonalEdgeStyle;rounded=1;orthogonalLoop=1;jettySize=auto;html=1;exitX=0.5;exitY=0;exitDx=0;exitDy=0;entryX=0.5;entryY=1;entryDx=0;entryDy=0;endArrow=none;startFill=0;dashed=1;dashPattern=8 8;" edge="1" parent="1" source="NJD8K3vONdqFfYmHJguv-3" target="NJD8K3vONdqFfYmHJguv-1">
          <mxGeometry relative="1" as="geometry" />
        </mxCell>
        <mxCell id="NJD8K3vONdqFfYmHJguv-16" value="Slow syncing" style="edgeLabel;html=1;align=center;verticalAlign=middle;resizable=0;points=[];" vertex="1" connectable="0" parent="NJD8K3vONdqFfYmHJguv-8">
          <mxGeometry x="0.5005" y="2" relative="1" as="geometry">
            <mxPoint as="offset" />
          </mxGeometry>
        </mxCell>
        <mxCell id="NJD8K3vONdqFfYmHJguv-3" value="Phone" style="rounded=1;whiteSpace=wrap;html=1;" vertex="1" parent="1">
          <mxGeometry x="365" y="510" width="120" height="60" as="geometry" />
        </mxCell>
        <mxCell id="NJD8K3vONdqFfYmHJguv-10" style="edgeStyle=orthogonalEdgeStyle;rounded=1;orthogonalLoop=1;jettySize=auto;html=1;exitX=0.5;exitY=0;exitDx=0;exitDy=0;entryX=1;entryY=0.5;entryDx=0;entryDy=0;endArrow=none;startFill=0;dashed=1;dashPattern=8 8;" edge="1" parent="1" source="NJD8K3vONdqFfYmHJguv-4" target="NJD8K3vONdqFfYmHJguv-1">
          <mxGeometry relative="1" as="geometry" />
        </mxCell>
        <mxCell id="NJD8K3vONdqFfYmHJguv-4" value="Tablet&lt;div&gt;(wants notes)&lt;/div&gt;" style="rounded=1;whiteSpace=wrap;html=1;" vertex="1" parent="1">
          <mxGeometry x="620" y="440" width="120" height="60" as="geometry" />
        </mxCell>
        <mxCell id="NJD8K3vONdqFfYmHJguv-14" value="Local Network" style="text;html=1;align=center;verticalAlign=middle;whiteSpace=wrap;rounded=1;" vertex="1" parent="1">
          <mxGeometry x="270" y="400" width="140" height="30" as="geometry" />
        </mxCell>
        <mxCell id="NJD8K3vONdqFfYmHJguv-19" value="Other network" style="text;html=1;align=center;verticalAlign=middle;whiteSpace=wrap;rounded=0;" vertex="1" parent="1">
          <mxGeometry x="373" y="140" width="105" height="30" as="geometry" />
        </mxCell>
      </root>
    </mxGraphModel>
  </diagram>
</mxfile>
